#!OML:ASF F:\VICON\USERDATA\INSTALL\SteveWalk\SteveWalk.ASF
:FULLY-SPECIFIED
:DEGREES
231
root -0.10854 15.9845 4.2283 17.0356 6.16053 2.73397
lowerback -14.7561 -3.57455 -1.09181
upperback -4.55889 -4.62705 1.5416
thorax 3.6411 -2.28822 1.41107
lowerneck -5.81866 0.779951 1.08397
upperneck 7.3409 1.16914 -2.69805
head 3.42574 0.500501 -1.02011
rclavicle 1.19892e-014 8.74653e-015
rhumerus -96.3724 -32.7203 7.15363
rradius 11.2825
rwrist 54.7027
rhand -15.2243 -37.0558
rfingers 7.12502
rthumb 10.9484 -66.7504
lclavicle 1.19892e-014 8.74653e-015
lhumerus -13.4249 -4.56024 80.7235
lradius 53.4074
lwrist 11.5497
lhand -23.2274 -19.8989
lfingers 7.12502
lthumb 3.22347 10.0565
rfemur -48.8801 -7.12177 21.7061
rtibia 19.8231
rfoot -9.49316 2.01448
rtoes -33.1057
lfemur 0.843972 0.831161 -21.9917
ltibia 21.1821
lfoot -20.8228 -7.93899
ltoes -24.7505
232
root -0.10455 15.9786 4.47401 17.0024 5.9972 2.50794
lowerback -14.8778 -3.49412 -0.645077
upperback -4.53295 -4.59195 1.68137
thorax 3.71002 -2.27005 1.30576
lowerneck -6.04333 0.914003 1.18992
upperneck 7.45792 1.37317 -3.08108
head 3.52142 0.586533 -1.15685
rclavicle -1.57413e-014 3.18055e-015
rhumerus -97.6518 -32.4963 9.88306
rradius 11.2673
rwrist 56.542
rhand -15.1794 -36.9987
rfingers 7.12502
rthumb 10.9917 -66.691
lclavicle -1.57413e-014 3.18055e-015
lhumerus -13.8864 -4.14366 80.6797
lradius 54.5684
lwrist 11.9489
lhand -23.3084 -19.9631
lfingers 7.12502
lthumb 3.14527 9.99347
rfemur -49.0857 -6.87071 21.8857
rtibia 21.5606
rfoot -6.67029 2.57855
rtoes -36.6132
lfemur 1.48471 0.0661673 -21.7998
ltibia 21.6737
lfoot -19.7269 -7.48982
ltoes -25.4989
233
root -0.101742 15.9766 4.70733 17.1156 5.77002 2.07943
lowerback -14.978 -3.31347 0.0326859
upperback -4.58642 -4.45988 1.85145
thorax 3.66643 -2.20317 1.12493
lowerneck -6.25301 0.979968 1.27967
upperneck 7.57858 1.48546 -3.43021
head 3.614 0.62752 -1.2846
rclavicle -4.72486e-014 1.82882e-014
rhumerus -98.391 -32.2895 11.4589
rradius 11.2862
rwrist 57.5646
rhand -15.056 -37.3792
rfingers 7.12502
rthumb 11.1107 -67.0651
lclavicle -4.72486e-014 1.82882e-014
lhumerus -14.4279 -3.7454 80.7622
lradius 55.6286
lwrist 12.2083
lhand -23.754 -19.8313
lfingers 7.12502
lthumb 2.71489 10.1312
rfemur -49.6132 -6.37188 22.0678
rtibia 23.5114
rfoot -4.98371 4.04334
rtoes -33.7152
lfemur 1.86742 -0.674739 -21.4212
ltibia 22.3379
lfoot -20.2261 -5.36295
ltoes -33.7137
234
root -0.101805 15.99 4.94852 17.261 5.34598 1.74218
lowerback -15.0888 -3.10692 0.565892
upperback -4.70436 -4.27224 2.02116
thorax 3.57191 -2.10955 1.03607
lowerneck -6.24512 1.0461 1.29358
upperneck 7.53912 1.60103 -3.76769
head 3.60773 0.671301 -1.39368
rclavicle -1.17531e-014 -3.18055e-015
rhumerus -98.1243 -32.1282 11.2451
rradius 11.362
rwrist 57.3491
rhand -14.9046 -37.6843
rfingers 7.12502
rthumb 11.2568 -67.3622
lclavicle -1.17531e-014 -3.18055e-015
lhumerus -15.2429 -3.23174 80.9607
lradius 56.5924
lwrist 12.5181
lhand -24.163 -19.9893
lfingers 7.12502
lthumb 2.31994 9.9778
rfemur -50.0691 -5.68783 22.0736
rtibia 25.3872
rfoot -3.94566 5.10237
rtoes -27.9115
lfemur 1.56387 -1.03334 -21.2317
ltibia 23.56
lfoot -17.7971 -6.49266
ltoes -31.9959
235
root -0.099647 15.9754 5.19573 17.3311 4.69323 1.4629
lowerback -15.2059 -2.87635 0.999578
upperback -4.7678 -4.04095 2.19255
thorax 3.54649 -1.99466 1.01027
lowerneck -6.25872 1.14707 1.28672
upperneck 7.43367 1.76551 -4.13517
head 3.58506 0.737966 -1.50626
rclavicle 1.63873e-014 -7.95139e-016
rhumerus -97.9263 -32.0908 11.3626
rradius 11.4157
rwrist 57.673
rhand -14.8257 -37.5882
rfingers 7.12502
rthumb 11.3329 -67.262
lclavicle 1.63873e-014 -7.95139e-016
lhumerus -16.281 -2.63997 81.1371
lradius 57.6543
lwrist 13.1801
lhand -24.1573 -20.2269
lfingers 7.12502
lthumb 2.32546 9.74013
rfemur -50.4375 -4.65146 21.8421
rtibia 27.367
rfoot -3.69023 5.40534
rtoes -27.4463
lfemur 1.60024 -1.23335 -21.1976
ltibia 25.2608
lfoot -15.4143 -6.0555
ltoes -34.3146
236
root -0.0932872 15.9742 5.43939 17.3552 3.9048 1.17168
lowerback -15.2559 -2.62693 1.46941
upperback -4.80231 -3.78998 2.34775
thorax 3.51348 -1.87056 0.953292
lowerneck -6.24391 1.30288 1.21816
upperneck 7.33596 2.00088 -4.40369
head 3.55981 0.842555 -1.57111
rclavicle -7.4917e-015 -3.73715e-014
rhumerus -99.3013 -32.0864 14.6565
rradius 11.2598
rwrist 60.8406
rhand -15.0295 -37.4534
rfingers 7.12502
rthumb 11.1363 -67.1379
lclavicle -7.4917e-015 -3.73715e-014
lhumerus -17.511 -2.00224 81.2583
lradius 58.8318
lwrist 13.9415
lhand -24.127 -20.0537
lfingers 7.12502
lthumb 2.3547 9.91302
rfemur -50.5746 -3.17302 21.3482
rtibia 29.2151
rfoot -4.23945 5.26302
rtoes -30.4421
lfemur 0.889279 -1.22473 -21.2459
ltibia 27.6044
lfoot -12.521 -7.39675
ltoes -29.8445
